<?xml version="1.0" encoding="utf-8"?><!-- Uploaded to: SVG Repo, www.svgrepo.com, Generator: SVG Repo Mixer Tools -->
<svg fill="#000000" width="800px" height="800px" viewBox="0 0 24 24" id="save-error" data-name="Flat Color" xmlns="http://www.w3.org/2000/svg" class="icon flat-color"><path id="primary" d="M3.5,10V4a2,2,0,0,1,2-2h11a1,1,0,0,1,.71.29l4,4A1,1,0,0,1,21.5,7V20a2,2,0,0,1-2,2H8.5a1,1,0,0,1-1-1V12a1,1,0,0,0-1-1h-2A1,1,0,0,1,3.5,10Z" style="fill: rgb(0, 0, 0);"></path><path id="secondary" d="M7.5,6a1,1,0,0,1,1-1h2a1,1,0,0,1,0,2h-2A1,1,0,0,1,7.5,6Zm0,9v6a1,1,0,0,0,1,1h9V15a1,1,0,0,0-1-1h-8A1,1,0,0,0,7.5,15ZM3,20.5A1.5,1.5,0,1,0,4.5,19,1.5,1.5,0,0,0,3,20.5ZM4.5,17a1,1,0,0,0,1-1V13a1,1,0,0,0-2,0v3A1,1,0,0,0,4.5,17Z" style="fill: rgb(44, 169, 188);"></path></svg>