<?xml version="1.0" encoding="utf-8"?><!-- Uploaded to: SVG Repo, www.svgrepo.com, Generator: SVG Repo Mixer Tools -->
<svg fill="#000000" width="800px" height="800px" viewBox="0 0 24 24" id="double-left-sign-square" data-name="Flat Color" xmlns="http://www.w3.org/2000/svg" class="icon flat-color"><rect id="primary" x="2" y="2" width="20" height="20" rx="2" style="fill: rgb(0, 0, 0);"></rect><path id="secondary" d="M11,16a1,1,0,0,1-.71-.29l-3-3a1,1,0,0,1,0-1.42l3-3a1,1,0,0,1,1.42,1.42L9.41,12l2.3,2.29a1,1,0,0,1,0,1.42A1,1,0,0,1,11,16Zm5.71-.29a1,1,0,0,0,0-1.42L14.41,12l2.3-2.29a1,1,0,0,0-1.42-1.42l-3,3a1,1,0,0,0,0,1.42l3,3a1,1,0,0,0,1.42,0Z" style="fill: rgb(44, 169, 188);"></path></svg>