<?xml version="1.0" encoding="utf-8"?><!-- Uploaded to: SVG Repo, www.svgrepo.com, Generator: SVG Repo Mixer Tools -->
<svg fill="#000000" width="800px" height="800px" viewBox="0 0 24 24" id="maximize-2" data-name="Flat Color" xmlns="http://www.w3.org/2000/svg" class="icon flat-color"><path id="secondary" d="M20,3H16a1,1,0,0,0,0,2h1.59l-4.3,4.29a1,1,0,0,0,0,1.42,1,1,0,0,0,1.42,0L19,6.41V8a1,1,0,0,0,2,0V4A1,1,0,0,0,20,3Z" style="fill: rgb(44, 169, 188);"></path><path id="primary" d="M9.29,13.29,5,17.59V16a1,1,0,0,0-2,0v4a1,1,0,0,0,1,1H8a1,1,0,0,0,0-2H6.41l4.3-4.29a1,1,0,0,0-1.42-1.42Z" style="fill: rgb(0, 0, 0);"></path></svg>